<mxfile host="app.diagrams.net" modified="2023-03-25T17:30:02.883Z" agent="Mozilla/5.0 (Macintosh; Intel Mac OS X 10_15_7) AppleWebKit/537.36 (KHTML, like Gecko) Chrome/111.0.0.0 Safari/537.36 Edg/111.0.1661.51" version="21.1.1" etag="z_Wds_7-Iirs8i7quYV0" type="github">
  <diagram name="第 1 页" id="IwxYfPiczpC-P2TCoL7M">
    <mxGraphModel>
      <root>
        <mxCell id="0" />
        <mxCell id="1" parent="0" />
      </root>
    </mxGraphModel>
  </diagram>
</mxfile>
